<svg width="146" height="66" viewBox="0 0 146 66" fill="none" xmlns="http://www.w3.org/2000/svg">
<path d="M13.368 51.72C10.168 51.72 7.568 51 5.568 49.56C3.568 48.12 2.352 46.096 1.92 43.488L7.824 42.576C8.128 43.856 8.8 44.864 9.84 45.6C10.88 46.336 12.192 46.704 13.776 46.704C15.168 46.704 16.24 46.432 16.992 45.888C17.76 45.328 18.144 44.568 18.144 43.608C18.144 43.016 18 42.544 17.712 42.192C17.44 41.824 16.832 41.472 15.888 41.136C14.944 40.8 13.496 40.376 11.544 39.864C9.368 39.288 7.64 38.672 6.36 38.016C5.08 37.344 4.16 36.552 3.6 35.64C3.04 34.728 2.76 33.624 2.76 32.328C2.76 30.712 3.184 29.304 4.032 28.104C4.88 26.904 6.064 25.984 7.584 25.344C9.104 24.688 10.896 24.36 12.96 24.36C14.976 24.36 16.76 24.672 18.312 25.296C19.88 25.92 21.144 26.808 22.104 27.96C23.064 29.112 23.656 30.464 23.88 32.016L17.976 33.072C17.832 31.968 17.328 31.096 16.464 30.456C15.616 29.816 14.48 29.456 13.056 29.376C11.696 29.296 10.6 29.504 9.768 30C8.936 30.48 8.52 31.16 8.52 32.04C8.52 32.536 8.688 32.96 9.024 33.312C9.36 33.664 10.032 34.016 11.04 34.368C12.064 34.72 13.584 35.152 15.6 35.664C17.664 36.192 19.312 36.8 20.544 37.488C21.792 38.16 22.688 38.968 23.232 39.912C23.792 40.856 24.072 42 24.072 43.344C24.072 45.952 23.12 48 21.216 49.488C19.328 50.976 16.712 51.72 13.368 51.72ZM41.7848 51.72C39.2568 51.72 37.1368 51.12 35.4248 49.92C33.7128 48.72 32.4248 47.088 31.5608 45.024C30.6968 42.944 30.2648 40.616 30.2648 38.04C30.2648 35.432 30.6968 33.096 31.5608 31.032C32.4248 28.968 33.6888 27.344 35.3528 26.16C37.0328 24.96 39.1048 24.36 41.5688 24.36C44.0168 24.36 46.1368 24.96 47.9288 26.16C49.7368 27.344 51.1368 28.968 52.1288 31.032C53.1208 33.08 53.6168 35.416 53.6168 38.04C53.6168 40.632 53.1288 42.96 52.1528 45.024C51.1768 47.088 49.8008 48.72 48.0248 49.92C46.2488 51.12 44.1688 51.72 41.7848 51.72ZM29.2808 62.52V25.08H34.3928V43.272H35.1128V62.52H29.2808ZM40.8968 46.536C42.4008 46.536 43.6408 46.16 44.6168 45.408C45.5928 44.656 46.3128 43.64 46.7768 42.36C47.2568 41.064 47.4968 39.624 47.4968 38.04C47.4968 36.472 47.2568 35.048 46.7768 33.768C46.2968 32.472 45.5528 31.448 44.5448 30.696C43.5368 29.928 42.2568 29.544 40.7048 29.544C39.2328 29.544 38.0328 29.904 37.1048 30.624C36.1768 31.328 35.4888 32.32 35.0408 33.6C34.6088 34.864 34.3928 36.344 34.3928 38.04C34.3928 39.72 34.6088 41.2 35.0408 42.48C35.4888 43.76 36.1848 44.76 37.1288 45.48C38.0888 46.184 39.3448 46.536 40.8968 46.536ZM70.6909 51.72C68.0669 51.72 65.7629 51.152 63.7789 50.016C61.7949 48.88 60.2429 47.304 59.1229 45.288C58.0189 43.272 57.4669 40.952 57.4669 38.328C57.4669 35.496 58.0109 33.04 59.0989 30.96C60.1869 28.864 61.6989 27.24 63.6349 26.088C65.5709 24.936 67.8109 24.36 70.3549 24.36C73.0429 24.36 75.3229 24.992 77.1949 26.256C79.0829 27.504 80.4829 29.272 81.3949 31.56C82.3069 33.848 82.6509 36.544 82.4269 39.648H76.6909V37.536C76.6749 34.72 76.1789 32.664 75.2029 31.368C74.2269 30.072 72.6909 29.424 70.5949 29.424C68.2269 29.424 66.4669 30.16 65.3149 31.632C64.1629 33.088 63.5869 35.224 63.5869 38.04C63.5869 40.664 64.1629 42.696 65.3149 44.136C66.4669 45.576 68.1469 46.296 70.3549 46.296C71.7789 46.296 73.0029 45.984 74.0269 45.36C75.0669 44.72 75.8669 43.8 76.4269 42.6L82.1389 44.328C81.1469 46.664 79.6109 48.48 77.5309 49.776C75.4669 51.072 73.1869 51.72 70.6909 51.72ZM61.7629 39.648V35.28H79.5949V39.648H61.7629Z" fill="#D20A2E"/>
<path d="M122.312 51L122.36 16.44H128.216V37.56L137.696 25.08H144.92L134.864 38.04L145.784 51H138.128L128.216 38.52V51H122.312Z" fill="#D20A2E"/>
<path d="M101 21L118.321 51H83.6795L101 21Z" fill="#D20A2E"/>
</svg>
