<svg width="63" height="66" viewBox="0 0 63 66" fill="none" xmlns="http://www.w3.org/2000/svg">
<path d="M13.368 51.72C10.168 51.72 7.568 51 5.568 49.56C3.568 48.12 2.352 46.096 1.92 43.488L7.824 42.576C8.128 43.856 8.8 44.864 9.84 45.6C10.88 46.336 12.192 46.704 13.776 46.704C15.168 46.704 16.24 46.432 16.992 45.888C17.76 45.328 18.144 44.568 18.144 43.608C18.144 43.016 18 42.544 17.712 42.192C17.44 41.824 16.832 41.472 15.888 41.136C14.944 40.8 13.496 40.376 11.544 39.864C9.368 39.288 7.64 38.672 6.36 38.016C5.08 37.344 4.16 36.552 3.6 35.64C3.04 34.728 2.76 33.624 2.76 32.328C2.76 30.712 3.184 29.304 4.032 28.104C4.88 26.904 6.064 25.984 7.584 25.344C9.104 24.688 10.896 24.36 12.96 24.36C14.976 24.36 16.76 24.672 18.312 25.296C19.88 25.92 21.144 26.808 22.104 27.96C23.064 29.112 23.656 30.464 23.88 32.016L17.976 33.072C17.832 31.968 17.328 31.096 16.464 30.456C15.616 29.816 14.48 29.456 13.056 29.376C11.696 29.296 10.6 29.504 9.768 30C8.936 30.48 8.52 31.16 8.52 32.04C8.52 32.536 8.688 32.96 9.024 33.312C9.36 33.664 10.032 34.016 11.04 34.368C12.064 34.72 13.584 35.152 15.6 35.664C17.664 36.192 19.312 36.8 20.544 37.488C21.792 38.16 22.688 38.968 23.232 39.912C23.792 40.856 24.072 42 24.072 43.344C24.072 45.952 23.12 48 21.216 49.488C19.328 50.976 16.712 51.72 13.368 51.72Z" fill="#D20A2E"/>
<path d="M43 21L60.3205 51H25.6795L43 21Z" fill="#D20A2E"/>
</svg>
